<?xml version="1.0" encoding="utf-8"?>
<!-- Generator: Adobe Illustrator 13.0.0, SVG Export Plug-In . SVG Version: 6.00 Build 14948)  -->
<!DOCTYPE svg PUBLIC "-//W3C//DTD SVG 1.1//EN" "http://www.w3.org/Graphics/SVG/1.1/DTD/svg11.dtd">
<svg version="1.1" id="Layer_1" xmlns="http://www.w3.org/2000/svg" xmlns:xlink="http://www.w3.org/1999/xlink" x="0px" y="0px"
	 width="100px" height="100px" viewBox="0 0 100 100" enable-background="new 0 0 100 100" xml:space="preserve">
<path fill-rule="evenodd" clip-rule="evenodd" fill="#CCFF00" d="M33.27,20L20,20.09L43.33,50L20,79.91L33.27,80L50,58.55L66.73,80
	L80,79.91L56.67,50L80,20.09L66.73,20L50,41.45L33.27,20z M0,50c0,27.61,22.39,50,50,50s50-22.39,50-50S77.61,0,50,0S0,22.39,0,50z
	 M5,50C5,25.15,25.15,5,50,5s45,20.15,45,45S74.85,95,50,95S5,74.85,5,50z"/>
</svg>
